# xmcd
#
# Track frame offsets: 
#        150
#        15304
#        31992
#        47669
#        62325
#        80271
#        93095
#        106595
#        123252
#        137463
#        154314
#        169546
#
# Disc length: 2434 seconds
#
# Revision: 0
# Processed by: cddbd v1.5.2PL0 Copyright (c) Steve Scherf et al.
# Submitted via: ExactAudioCopy v1.3
#
DISCID=7a09800c
DTITLE=Joe Nichols - Never Gets Old
DYEAR=2017
DGENRE=Country
TTITLE0=Diamonds Make Babies
TTITLE1=Girl in the Song
TTITLE2=We All Carry Something
TTITLE3=I'd Sing About You
TTITLE4=Breathless
TTITLE5=Tall Boys
TTITLE6=Hostage
TTITLE7=Never Gets Old
TTITLE8=Billy Graham's Bible
TTITLE9=So You're Saying
TTITLE10=This Side of the River
TTITLE11=Baby Got Back (feat. Darren Knight)
EXTD=
EXTT0=
EXTT1=
EXTT2=
EXTT3=
EXTT4=
EXTT5=
EXTT6=
EXTT7=
EXTT8=
EXTT9=
EXTT10=
EXTT11=
PLAYORDER=
